<svg viewBox="0 0 14 14" xmlns="http://www.w3.org/2000/svg">
  <path d="M14 7C14 8.16062 13.7607 9.07945 13.2821 9.75648C12.8034 10.4335 12.1453 10.772 11.3077 10.772C10.4103 10.772 9.74017 10.3307 9.29744 9.44819C8.71111 10.3307 7.8735 10.772 6.78462 10.772C5.77949 10.772 4.94786 10.4214 4.28974 9.72021C3.63162 9.019 3.30256 8.13644 3.30256 7.07254C3.30256 6.02073 3.63162 5.14421 4.28974 4.44301C4.95983 3.72971 5.76752 3.37306 6.71282 3.37306C7.63419 3.37306 8.4 3.72971 9.01026 4.44301H9.08205V3.62694H10.3744V8.14249C10.3744 9.10967 10.7274 9.59326 11.4333 9.59326C12.2829 9.59326 12.7077 8.72884 12.7077 7C12.7077 5.42833 12.1573 4.08636 11.0564 2.97409C9.95555 1.86183 8.61539 1.3057 7.0359 1.3057C5.45641 1.3057 4.11624 1.86183 3.01538 2.97409C1.91453 4.08636 1.3641 5.42833 1.3641 7C1.3641 8.58377 1.91453 9.93178 3.01538 11.044C4.10427 12.1442 5.44444 12.6943 7.0359 12.6943C7.89744 12.6943 8.65727 12.525 9.31538 12.1865L9.81795 13.4197C8.95641 13.8066 8.02906 14 7.0359 14C5.75556 14 4.57094 13.6917 3.48205 13.0751C2.41709 12.4585 1.56752 11.6062 0.933333 10.5181C0.622222 9.962 0.388889 9.38774 0.233333 8.79534C0.0777777 8.20294 0 7.59845 0 6.98187C0 6.37738 0.0717949 5.78497 0.215385 5.20466C0.37094 4.61226 0.604274 4.04404 0.915385 3.5C1.2265 2.95596 1.59744 2.46632 2.02821 2.03109C2.47094 1.59586 2.95556 1.23316 3.48205 0.943006C4.02051 0.64076 4.58889 0.411054 5.18718 0.253886C5.78547 0.0846285 6.40171 0 7.0359 0C8.30427 0 9.47094 0.30829 10.5359 0.924871C11.6128 1.54145 12.4564 2.39378 13.0667 3.48187C13.6889 4.55786 14 5.73057 14 7ZM4.73846 7.07254C4.73846 7.41105 4.79231 7.72539 4.9 8.01554C5.00769 8.29361 5.15727 8.53541 5.34872 8.74093C5.55214 8.94646 5.78547 9.10967 6.04872 9.23057C6.31197 9.33938 6.59915 9.39378 6.91026 9.39378C7.22137 9.39378 7.50855 9.33938 7.7718 9.23057C8.03504 9.10967 8.26239 8.95251 8.45385 8.75907C8.65726 8.55354 8.81282 8.31174 8.92051 8.03368C9.0282 7.74352 9.08205 7.42314 9.08205 7.07254C9.08205 6.73402 9.0282 6.41969 8.92051 6.12953C8.81282 5.83938 8.65726 5.59758 8.45385 5.40414C8.26239 5.19862 8.03504 5.04145 7.7718 4.93264C7.50855 4.81174 7.22137 4.7513 6.91026 4.7513C6.59915 4.7513 6.31197 4.81174 6.04872 4.93264C5.78547 5.04145 5.55214 5.19862 5.34872 5.40414C5.15727 5.60967 5.00769 5.85751 4.9 6.14767C4.79231 6.42573 4.73846 6.73402 4.73846 7.07254Z" fill="currentColor" />
</svg>
