<svg viewBox="0 0 14 14" xmlns="http://www.w3.org/2000/svg">
  <path d="M6.99886 0C5.09795 0 4.85877 0.00797526 4.11276 0.0421549C3.53235 0.0539554 2.95815 0.164133 2.41458 0.368001C1.94738 0.542729 1.52433 0.818116 1.1754 1.17464C0.819309 1.5244 0.543399 1.94734 0.366743 2.41423C0.162861 2.95831 0.0530917 3.53315 0.0421412 4.1141C0.00911162 4.86035 0 5.09847 0 7C0 8.90153 0.00797266 9.13851 0.0421412 9.88591C0.0539378 10.4665 0.164079 11.0409 0.367882 11.5846C0.543413 12.0515 0.818596 12.4746 1.17426 12.8242C1.5236 13.1808 1.94649 13.4569 2.41344 13.6331C2.95749 13.8366 3.53206 13.9463 4.11276 13.9578C4.85877 13.992 5.09681 14 6.99772 14C8.89863 14 9.13554 13.992 9.88269 13.9578C10.4634 13.9463 11.038 13.8366 11.582 13.6331C12.0474 13.4526 12.4701 13.1769 12.8231 12.8238C13.1761 12.4707 13.4516 12.0479 13.6321 11.5824C13.8348 11.0383 13.9449 10.4641 13.9579 9.88363C13.9909 9.13737 14 8.89925 14 6.99772C14 5.09619 13.9909 4.85807 13.9579 4.11182C13.9449 3.53097 13.8348 2.9564 13.6321 2.41195C13.4563 1.9449 13.1807 1.52186 12.8246 1.17236C12.4759 0.815576 12.0528 0.540149 11.5854 0.365723C11.0399 0.162127 10.4637 0.0527148 9.88155 0.0421549C9.1344 0.00797526 8.89749 0 6.99658 0H6.99886ZM6.37016 1.26123H6.99886C8.86674 1.26123 9.0877 1.26807 9.82574 1.30225C10.2695 1.3073 10.7091 1.38861 11.1253 1.54264C11.4292 1.65493 11.7039 1.83403 11.9294 2.06673C12.1615 2.29264 12.3405 2.5674 12.4533 2.87109C12.6073 3.28744 12.6886 3.72717 12.6936 4.17106C12.7278 4.9082 12.7346 5.13037 12.7346 6.99886C12.7346 8.86735 12.7278 9.08838 12.6936 9.82666C12.6887 10.2702 12.6074 10.7096 12.4533 11.1255C12.3367 11.4271 12.1584 11.7011 11.9296 11.9297C11.7009 12.1583 11.4269 12.3364 11.1253 12.4528C10.7094 12.608 10.2696 12.6897 9.82574 12.6943C9.08884 12.7285 8.86674 12.7354 6.99886 12.7354C5.13098 12.7354 4.90888 12.7285 4.17084 12.6943C3.72702 12.6889 3.28744 12.6072 2.8713 12.4528C2.56713 12.341 2.29194 12.1623 2.06606 11.9299C1.83385 11.7042 1.6552 11.4293 1.54328 11.1255C1.38891 10.7092 1.30724 10.2695 1.30182 9.82552C1.26879 9.08724 1.26196 8.86621 1.26196 6.99658C1.26196 5.12695 1.26879 4.90706 1.30182 4.16878C1.30655 3.72475 1.38825 3.28491 1.54328 2.86882C1.6552 2.56495 1.83385 2.29008 2.06606 2.06445C2.29212 1.83197 2.56723 1.65292 2.8713 1.54036C3.28757 1.38643 3.72707 1.30474 4.17084 1.29883C4.81663 1.27035 5.06606 1.26123 6.37016 1.26009V1.26123ZM10.7335 2.42334C10.5672 2.42334 10.4046 2.47268 10.2664 2.56512C10.1281 2.65756 10.0204 2.78895 9.95681 2.94266C9.89323 3.09636 9.87665 3.26548 9.90917 3.42862C9.9417 3.59175 10.0219 3.74157 10.1395 3.85911C10.2572 3.97666 10.4071 4.05665 10.5702 4.08896C10.7333 4.12128 10.9024 4.10446 11.0559 4.04065C11.2095 3.97684 11.3407 3.86889 11.4329 3.73047C11.5252 3.59204 11.5743 3.42937 11.574 3.26302C11.574 3.15266 11.5523 3.04337 11.51 2.94143C11.4678 2.83948 11.4058 2.74686 11.3278 2.66887C11.2497 2.59089 11.157 2.52906 11.0551 2.48693C10.9531 2.4448 10.8438 2.42319 10.7335 2.42334ZM6.99886 3.40544C6.28815 3.40544 5.59341 3.61625 5.00248 4.01123C4.41155 4.40621 3.95097 4.9676 3.679 5.62442C3.40702 6.28124 3.33586 7.00399 3.47451 7.70126C3.61316 8.39854 3.9554 9.03903 4.45795 9.54174C4.96049 10.0444 5.60077 10.3868 6.29782 10.5255C6.99487 10.6642 7.71739 10.593 8.37399 10.3209C9.0306 10.0489 9.59181 9.58816 9.98666 8.99703C10.3815 8.40591 10.5923 7.71094 10.5923 7C10.592 6.04676 10.2133 5.13264 9.53944 4.45859C8.86561 3.78455 7.9518 3.40574 6.99886 3.40544ZM6.99886 4.66667C7.46035 4.66599 7.91166 4.80226 8.2957 5.05824C8.67974 5.31422 8.97924 5.6784 9.15631 6.1047C9.33338 6.531 9.38006 7.00027 9.29045 7.45311C9.20083 7.90596 8.97895 8.32204 8.65287 8.6487C8.32679 8.97537 7.91117 9.19794 7.4586 9.28825C7.00603 9.37856 6.53685 9.33255 6.11043 9.15604C5.68401 8.97954 5.31951 8.68047 5.06305 8.29669C4.80659 7.9129 4.6697 7.46164 4.6697 7C4.67091 6.38254 4.91672 5.79074 5.3533 5.35424C5.78987 4.91773 6.3816 4.67213 6.99886 4.67122V4.66667Z" fill="currentColor" />
</svg>
