<svg viewBox="0 0 14 14" xmlns="http://www.w3.org/2000/svg">
  <rect width="14" height="14" rx="2" fill="none" />
  <path d="M2.07597 5.24868H4.15628V11.9293H2.07597V5.24868ZM3.11459 1.92368C3.77828 1.92368 4.31772 2.46311 4.31772 3.1268C4.31772 3.79049 3.77828 4.33124 3.11503 4.33124C2.79577 4.33055 2.48977 4.20344 2.26398 3.97773C2.03818 3.75201 1.91097 3.44606 1.91016 3.1268C1.91016 2.96869 1.94132 2.81214 2.00186 2.66608C2.06241 2.52003 2.15115 2.38734 2.26301 2.2756C2.37487 2.16386 2.50765 2.07527 2.65377 2.01488C2.7999 1.9545 2.95649 1.9235 3.11459 1.92368ZM5.45522 5.24868H7.44672V6.16174H7.47428C7.75166 5.63674 8.42891 5.08286 9.44303 5.08286C11.5457 5.08286 11.9337 6.46668 11.9337 8.26524V11.9297H9.85866V8.67999C9.85866 7.90561 9.84466 6.90811 8.77978 6.90811C7.69916 6.90811 7.53291 7.75249 7.53291 8.62311V11.928H5.45828V5.24736L5.45522 5.24868Z" fill="currentColor" />
</svg>
